<?xml version="1.0" encoding="utf-8"?>
<!-- Generator: Adobe Illustrator 15.0.2, SVG Export Plug-In . SVG Version: 6.00 Build 0)  -->
<!DOCTYPE svg PUBLIC "-//W3C//DTD SVG 1.1//EN" "http://www.w3.org/Graphics/SVG/1.1/DTD/svg11.dtd">
<svg version="1.1" id="Layer_1" xmlns="http://www.w3.org/2000/svg" xmlns:xlink="http://www.w3.org/1999/xlink" x="0px" y="0px"
	 width="100px" height="100px" viewBox="0 0 100 100" enable-background="new 0 0 100 100" xml:space="preserve">
<path fill="#FFFFFF" d="M64.729,66.674c1.93,1.473,7.656,2.817,12.26,5.317c1.513,0.829,1.648,2.045,1.764,2.789
	c0.115,0.735-1.309,9.017-1.309,9.017H36.048c0,0-1.408-8.279-1.292-9.017c0.115-0.744,0.124-1.862,1.763-2.789
	c4.557-2.571,10.303-3.757,12.232-5.235c0.763-0.581,0.565-1.531,0.744-2.439c0.167-0.901,0.734-0.28,0.734-1.246
	c0-0.973,0.187-0.805,0.071-2.1c-0.09-1.117-1.629-1.238-1.717-3.345c-0.016-0.442-0.793-0.733-1.25-1.417
	c-0.458-0.684-1.192-1.87-1.192-3.238c0-1.359,0.283-1.023,0.283-2.728c0-1.703-0.062-2.686,0.909-6.636
	c0.365-1.476,1.595-3.206,2.835-3.988c1.664-1.055,0.993,0.354,6.587-0.902c3.629-0.805,9.312,2.958,9.372,5.962
	c0.07,4.074,0.329,3.768,0.566,5.452c0.168,1.191,0.515,0.91,0.515,2.277c0,1.359-0.741,3.062-1.196,3.742
	c-0.449,0.687-0.878,1.776-0.929,2.221c-0.302,2.27-1.821,1.744-1.884,2.96c-0.053,1.117-0.126,0.976,0.033,1.84
	c0.145,0.728,0.565-0.048,0.733,0.864C64.137,64.939,64.021,66.277,64.729,66.674z"/>
<g>
	<path fill="#FFFFFF" d="M74.641,58.956c0.321,0.478,0.862,0.679,0.869,0.991c0.063,1.464,1.143,1.548,1.202,2.338
		c0.084,0.896-0.052,0.777-0.052,1.453c0,0.673-0.398,0.242-0.514,0.869c-0.115,0.636,0.02,1.293-0.515,1.707
		c-0.603,0.461-1.741,0.896-3.104,1.391c1.959,0.725,4.113,1.581,6.141,2.643c2.188,1.139,2.234,2.553,2.4,3.649
		c0.063,0.392,0.134,2.213,0.207,4.204h14.088c0,0,1.268-5.776,1.189-6.293c-0.084-0.518-0.136-1.346-1.223-1.944
		c-3.206-1.753-7.206-2.679-8.553-3.708c-0.494-0.279-0.418-1.208-0.529-1.845c-0.126-0.634-0.416-0.097-0.516-0.604
		c-0.114-0.602-0.062-0.502-0.018-1.276c0.047-0.851,1.098-0.485,1.301-2.074c0.045-0.304,0.336-1.067,0.657-1.539
		c0.313-0.476,0.828-1.662,0.828-2.618c0-0.947-0.237-0.748-0.358-1.58c-0.162-1.178-0.338-0.967-0.393-3.803
		c-0.035-2.1-3.999-4.727-6.532-4.16c-3.913,0.871-3.444-0.107-4.602,0.629c-0.861,0.544-1.728,1.749-1.978,2.78
		c-0.68,2.754-0.638,3.444-0.638,4.632s-0.192,0.946-0.192,1.898C73.812,57.646,74.326,58.479,74.641,58.956z"/>
</g>
<g id="Your_Icon">
	<path fill="#FFFFFF" d="M35.029,51.615L20.696,37.184l6.957-7.007l7.58,7.626l20.433-20.548l6.753,6.797L35.029,51.615z"/>
</g>
<polygon fill="#FFFFFF" points="36.772,59.352 9.379,59.352 9.379,25.007 44.517,25.007 44.517,17.262 3.458,17.262 3.458,67.104 
	36.772,67.104 "/>
</svg>
