<?xml version="1.0" encoding="utf-8"?>
<!-- Generator: Adobe Illustrator 15.0.2, SVG Export Plug-In . SVG Version: 6.00 Build 0)  -->
<!DOCTYPE svg PUBLIC "-//W3C//DTD SVG 1.1//EN" "http://www.w3.org/Graphics/SVG/1.1/DTD/svg11.dtd">
<svg version="1.1" id="Layer_1" xmlns="http://www.w3.org/2000/svg" xmlns:xlink="http://www.w3.org/1999/xlink" x="0px" y="0px"
	 width="100px" height="94.445px" viewBox="0 0 100 94.445" enable-background="new 0 0 100 94.445" xml:space="preserve">
<g>
	<path fill="#FFFFFF" d="M3.365,7.673c2.783-0.754,5.653,0.9,6.405,3.721L30.049,87.82c0.746,2.817-0.895,5.714-3.691,6.466
		c-2.776,0.756-5.652-0.916-6.404-3.731L-0.318,14.13C-1.069,11.302,0.582,8.424,3.365,7.673z"/>
	<path fill="#FFFFFF" d="M14.5,13.722c1.356-2.346,14-21.829,35.71-8.11c21.752,13.714,35.906,23.515,45.29,7.11
		c0,0-2.344,13.279-6.371,20.318c-4.021,7.04-16.629,16.682-32.238,12.575C42.449,41.817,31.825,47.674,27.5,60.722
		C27.5,60.722,15.53,17.388,14.5,13.722z"/>
</g>
</svg>
